<?xml version="1.0" encoding="utf-8"?>
<!-- Generator: Adobe Illustrator 21.0.0, SVG Export Plug-In . SVG Version: 6.00 Build 0)  -->
<svg version="1.1" id="Lager_1" xmlns="http://www.w3.org/2000/svg" xmlns:xlink="http://www.w3.org/1999/xlink" x="0px" y="0px"
	 viewBox="0 0 490 333.1" style="enable-background:new 0 0 490 333.1;" xml:space="preserve">
<style type="text/css">
	.st0{enable-background:new    ;}
	.st1{fill:#FFFFFF;}
</style>
<title>SAND_logga</title>
<g class="st0">
	<path class="st1" d="M59,42.6c32.1,0,48.6,19.2,48.6,52.8v6.6H76.4v-8.7c0-15-6-20.7-16.5-20.7c-10.5,0-16.5,5.7-16.5,20.7
		c0,15.3,6.6,26.7,28.2,45.6c27.6,24.3,36.3,41.7,36.3,65.7c0,33.6-16.8,52.8-49.2,52.8S9.5,238.2,9.5,204.6v-12.9h31.2v15
		c0,15,6.6,20.4,17.1,20.4s17.1-5.4,17.1-20.4c0-15.3-6.6-26.7-28.2-45.6c-27.6-24.3-36.3-41.7-36.3-65.7
		C10.4,61.8,26.9,42.6,59,42.6z"/>
	<path class="st1" d="M233.6,255h-33.3l-5.7-38.1h-40.5l-5.7,38.1h-30.3l33.6-210H200L233.6,255z M158.3,188.4h31.8L174.5,82.2h-0.6
		L158.3,188.4z"/>
	<path class="st1" d="M278.9,102.9h-0.6V255h-29.7V45H290l33.3,125.7h0.6V45h29.4v210h-33.9L278.9,102.9z"/>
	<path class="st1" d="M377,45h52.2c33,0,49.2,18.3,49.2,51.9v106.2c0,33.6-16.2,51.9-49.2,51.9H377V45z M410,75v150h18.6
		c10.5,0,16.8-5.4,16.8-20.4V95.4c0-15-6.3-20.4-16.8-20.4H410z"/>
</g>
<g class="st0">
	<path class="st1" d="M114.5,258.2c-3.8,0-6.3,1.5-6.3,4c0,7.6,16.6,3.7,16.5,14.3c0,4.9-4.3,8-10.6,8c-4.3,0-8.5-1.8-11.3-4.5
		l1.5-2.9c2.7,2.6,6.5,4.1,9.8,4.1c4.2,0,6.9-1.7,6.9-4.6c0-7.9-16.5-3.7-16.5-14.2c0-4.6,4.1-7.6,10.2-7.6c3.4,0,6.9,1.1,9.3,2.7
		l-1.4,3C120,258.9,116.9,258.2,114.5,258.2z"/>
</g>
<g class="st0">
	<path class="st1" d="M150.2,255.1v3.1h-9.6v26.3h-3.4v-26.3h-9.6v-3.1H150.2z"/>
</g>
<g class="st0">
	<path class="st1" d="M181.2,269.8c0,8.3-6.8,14.8-15.4,14.8c-8.6,0-15.4-6.6-15.4-14.8c0-8.3,6.8-14.8,15.4-14.8
		C174.4,255,181.2,261.5,181.2,269.8z M153.8,269.8c0,6.5,5.5,11.8,12,11.8s11.9-5.3,11.9-11.8c0-6.5-5.4-11.7-11.9-11.7
		S153.8,263.3,153.8,269.8z"/>
</g>
<g class="st0">
	<path class="st1" d="M199.2,258.1c-6.6,0-12,5.2-12,11.7c0,6.5,5.3,11.7,12,11.7c3.2,0,6.4-1.3,8.7-3.5l2.1,2.2
		c-2.9,2.7-6.8,4.5-10.9,4.5c-8.5,0-15.2-6.6-15.2-14.9c0-8.2,6.8-14.7,15.3-14.7c4,0,7.9,1.6,10.8,4.3l-2,2.4
		C205.7,259.4,202.5,258.1,199.2,258.1z"/>
	<path class="st1" d="M235.9,284.5l-10.8-14l-5.7,6.3v7.7H216v-29.4h3.4v17.1l15.8-17.1h4l-11.7,12.8l12.6,16.6H235.9z"/>
	<path class="st1" d="M248.8,255.1v13.3h17.7v-13.3h3.4v29.4h-3.4v-13h-17.7v13h-3.4v-29.4H248.8z"/>
	<path class="st1" d="M306.8,269.8c0,8.3-6.8,14.8-15.4,14.8c-8.6,0-15.4-6.6-15.4-14.8c0-8.3,6.8-14.8,15.4-14.8
		C300,255,306.8,261.5,306.8,269.8z M279.4,269.8c0,6.5,5.5,11.8,12,11.8c6.6,0,11.9-5.3,11.9-11.8c0-6.5-5.4-11.7-11.9-11.7
		C284.8,258.1,279.4,263.3,279.4,269.8z"/>
	<path class="st1" d="M316.2,255.1v26.3h12.9v3.1h-16.3v-29.4H316.2z"/>
	<path class="st1" d="M338.8,255.1l10.8,21.3l10.7-21.3h4.1v29.4h-3.1l0-24.4l-10.7,21.3h-2L337.8,260v24.4h-3.2v-29.4H338.8z"/>
</g>
</svg>
